<?xml version="1.0" encoding="UTF-8" standalone="no"?>
<!DOCTYPE svg PUBLIC "-//W3C//DTD SVG 1.1//EN"
 "http://www.w3.org/Graphics/SVG/1.1/DTD/svg11.dtd">
<!-- Generated by graphviz version 2.44.1 (20200629.0846)
 -->
<!-- Title: G Pages: 1 -->
<svg width="1254pt" height="599pt"
 viewBox="0.00 0.00 1253.50 599.00" xmlns="http://www.w3.org/2000/svg" xmlns:xlink="http://www.w3.org/1999/xlink">
<g id="graph0" class="graph" transform="scale(1 1) rotate(0) translate(4 595)">
<title>G</title>
<polygon fill="white" stroke="transparent" points="-4,4 -4,-595 1249.5,-595 1249.5,4 -4,4"/>
<!-- NNNs -->
<g id="node1" class="node">
<title>NNNs</title>
<polygon fill="none" stroke="green" stroke-width="5" points="372.5,-591 176.5,-591 176.5,-555 372.5,-555 372.5,-591"/>
<text text-anchor="middle" x="274.5" y="-569.3" font-family="Times,serif" font-size="14.00">1: (游릴 , 游릴 ) (游릴 , 游릴 ) (游릴 , 游릴 )</text>
</g>
<!-- NNMt -->
<g id="node2" class="node">
<title>NNMt</title>
<polygon fill="none" stroke="yellow" stroke-width="5" points="466.5,-504 270.5,-504 270.5,-468 466.5,-468 466.5,-504"/>
<text text-anchor="middle" x="368.5" y="-482.3" font-family="Times,serif" font-size="14.00">2: (游릴 , 游릴 ) (游릴 , 游릴 ) (游릴 , 游린 )</text>
</g>
<!-- NNNs&#45;&gt;NNMt -->
<g id="edge6" class="edge">
<title>NNNs&#45;&gt;NNMt</title>
<path fill="none" stroke="orange" d="M293.52,-554.8C307.41,-542.24 326.42,-525.05 341.83,-511.12"/>
<polygon fill="orange" stroke="orange" points="344.44,-513.48 349.51,-504.18 339.74,-508.29 344.44,-513.48"/>
</g>
<!-- NNDt -->
<g id="node4" class="node">
<title>NNDt</title>
<polygon fill="none" stroke="yellow" stroke-width="5" points="340.5,-328 144.5,-328 144.5,-292 340.5,-292 340.5,-328"/>
<text text-anchor="middle" x="242.5" y="-306.3" font-family="Times,serif" font-size="14.00">5: (游릴 , 游릴 ) (游릴 , 游릴 ) (游린 , 游린 )</text>
</g>
<!-- NNNs&#45;&gt;NNDt -->
<g id="edge7" class="edge">
<title>NNNs&#45;&gt;NNDt</title>
<path fill="none" stroke="red" d="M270.75,-554.74C267.89,-541.04 264.01,-521.37 261.5,-504 253,-445.16 247.19,-375.67 244.4,-338.22"/>
<polygon fill="red" stroke="red" points="247.88,-337.82 243.66,-328.1 240.9,-338.33 247.88,-337.82"/>
</g>
<!-- NNMs -->
<g id="node3" class="node">
<title>NNMs</title>
<polygon fill="none" stroke="green" stroke-width="5" points="806.5,-416 610.5,-416 610.5,-380 806.5,-380 806.5,-416"/>
<text text-anchor="middle" x="708.5" y="-394.3" font-family="Times,serif" font-size="14.00">4: (游릴 , 游릴 ) (游릴 , 游릴 ) (游릴 , 游린 )</text>
</g>
<!-- NNMt&#45;&gt;NNMs -->
<g id="edge22" class="edge">
<title>NNMt&#45;&gt;NNMs</title>
<path fill="none" stroke="blue" d="M436.08,-467.91C492.28,-453.69 572.3,-433.45 631.07,-418.59"/>
<polygon fill="blue" stroke="blue" points="632.21,-421.91 641.05,-416.06 630.5,-415.12 632.21,-421.91"/>
</g>
<!-- NNMt&#45;&gt;NNDt -->
<g id="edge27" class="edge">
<title>NNMt&#45;&gt;NNDt</title>
<path fill="none" stroke="orange" stroke-dasharray="1,5" d="M351.98,-468C326.65,-437.33 279.54,-372.61 256.07,-336.57"/>
<polygon fill="orange" stroke="orange" points="258.97,-334.62 250.64,-328.07 253.07,-338.38 258.97,-334.62"/>
</g>
<!-- NNMt&#45;&gt;NNDt -->
<g id="edge29" class="edge">
<title>NNMt&#45;&gt;NNDt</title>
<path fill="none" stroke="red" stroke-dasharray="1,5" d="M360.4,-468C341.23,-437.2 294.29,-372.06 265.6,-336.12"/>
<polygon fill="red" stroke="red" points="268.1,-333.63 259.08,-328.07 262.66,-338.04 268.1,-333.63"/>
</g>
<!-- NMMf -->
<g id="node8" class="node">
<title>NMMf</title>
<polygon fill="none" stroke="red" stroke-width="5" points="592.5,-416 396.5,-416 396.5,-380 592.5,-380 592.5,-416"/>
<text text-anchor="middle" x="494.5" y="-394.3" font-family="Times,serif" font-size="14.00">3: (游릴 , 游릴 ) (游릴 , 游린 ) (游릴 , 游린 )</text>
</g>
<!-- NNMt&#45;&gt;NMMf -->
<g id="edge28" class="edge">
<title>NNMt&#45;&gt;NMMf</title>
<path fill="none" stroke="orange" stroke-dasharray="1,5" d="M393.7,-467.8C413.01,-454.62 439.85,-436.3 460.98,-421.88"/>
<polygon fill="orange" stroke="orange" points="463.06,-424.7 469.35,-416.17 459.12,-418.91 463.06,-424.7"/>
</g>
<!-- NMDf -->
<g id="node11" class="node">
<title>NMDf</title>
<polygon fill="none" stroke="red" stroke-width="5" points="527.5,-255 331.5,-255 331.5,-219 527.5,-219 527.5,-255"/>
<text text-anchor="middle" x="429.5" y="-233.3" font-family="Times,serif" font-size="14.00">8: (游릴 , 游릴 ) (游릴 , 游린 ) (游린 , 游린 )</text>
</g>
<!-- NNMt&#45;&gt;NMDf -->
<g id="edge30" class="edge">
<title>NNMt&#45;&gt;NMDf</title>
<path fill="none" stroke="red" stroke-dasharray="1,5" d="M370.95,-467.99C374.11,-446.95 380.1,-410.1 387.5,-379 397.08,-338.72 411.36,-292.92 420.56,-264.74"/>
<polygon fill="red" stroke="red" points="423.9,-265.79 423.7,-255.2 417.25,-263.6 423.9,-265.79"/>
</g>
<!-- NNMs&#45;&gt;NNDt -->
<g id="edge9" class="edge">
<title>NNMs&#45;&gt;NNDt</title>
<path fill="none" stroke="orange" d="M610.65,-379.96C530.81,-365.52 418.69,-344.84 339.17,-329.89"/>
<polygon fill="orange" stroke="orange" points="339.63,-326.42 329.16,-328.01 338.34,-333.3 339.63,-326.42"/>
</g>
<!-- NNMs&#45;&gt;NNDt -->
<g id="edge10" class="edge">
<title>NNMs&#45;&gt;NNDt</title>
<path fill="none" stroke="red" d="M621.66,-379.96C544.85,-365.49 432.55,-344.75 350.07,-329.8"/>
<polygon fill="red" stroke="red" points="350.63,-326.35 340.17,-328.01 349.38,-333.23 350.63,-326.35"/>
</g>
<!-- NMMt -->
<g id="node7" class="node">
<title>NMMt</title>
<polygon fill="none" stroke="yellow" stroke-width="5" points="821.5,-328 625.5,-328 625.5,-292 821.5,-292 821.5,-328"/>
<text text-anchor="middle" x="723.5" y="-306.3" font-family="Times,serif" font-size="14.00">6: (游릴 , 游릴 ) (游릴 , 游린 ) (游릴 , 游린 )</text>
</g>
<!-- NNMs&#45;&gt;NMMt -->
<g id="edge8" class="edge">
<title>NNMs&#45;&gt;NMMt</title>
<path fill="none" stroke="orange" d="M711.54,-379.6C713.6,-367.75 716.38,-351.82 718.74,-338.29"/>
<polygon fill="orange" stroke="orange" points="722.25,-338.54 720.52,-328.08 715.35,-337.33 722.25,-338.54"/>
</g>
<!-- NMDt -->
<g id="node10" class="node">
<title>NMDt</title>
<polygon fill="none" stroke="yellow" stroke-width="5" points="590,-182 387,-182 387,-146 590,-146 590,-182"/>
<text text-anchor="middle" x="488.5" y="-160.3" font-family="Times,serif" font-size="14.00">11: (游릴 , 游릴 ) (游릴 , 游린 ) (游린 , 游린 )</text>
</g>
<!-- NNMs&#45;&gt;NMDt -->
<g id="edge11" class="edge">
<title>NNMs&#45;&gt;NMDt</title>
<path fill="none" stroke="red" d="M681.47,-379.85C662.2,-366.91 636.3,-348.01 616.5,-328 574.23,-285.29 574.28,-265.73 536.5,-219 528.57,-209.19 519.47,-198.76 511.33,-189.7"/>
<polygon fill="red" stroke="red" points="513.8,-187.21 504.49,-182.15 508.61,-191.91 513.8,-187.21"/>
</g>
<!-- NNDs -->
<g id="node5" class="node">
<title>NNDs</title>
<polygon fill="none" stroke="green" stroke-width="5" points="313.5,-255 117.5,-255 117.5,-219 313.5,-219 313.5,-255"/>
<text text-anchor="middle" x="215.5" y="-233.3" font-family="Times,serif" font-size="14.00">7: (游릴 , 游릴 ) (游릴 , 游릴 ) (游린 , 游린 )</text>
</g>
<!-- NNDt&#45;&gt;NNDs -->
<g id="edge24" class="edge">
<title>NNDt&#45;&gt;NNDs</title>
<path fill="none" stroke="blue" d="M235.96,-291.81C232.85,-283.62 229.05,-273.62 225.57,-264.48"/>
<polygon fill="blue" stroke="blue" points="228.8,-263.13 221.98,-255.03 222.26,-265.62 228.8,-263.13"/>
</g>
<!-- NNDt&#45;&gt;NMDf -->
<g id="edge31" class="edge">
<title>NNDt&#45;&gt;NMDf</title>
<path fill="none" stroke="orange" stroke-dasharray="1,5" d="M287.29,-291.99C313.58,-282.01 347,-269.32 374.83,-258.76"/>
<polygon fill="orange" stroke="orange" points="376.32,-261.94 384.43,-255.11 373.84,-255.39 376.32,-261.94"/>
</g>
<!-- NDDf -->
<g id="node13" class="node">
<title>NDDf</title>
<polygon fill="none" stroke="red" stroke-width="5" points="203,-109 0,-109 0,-73 203,-73 203,-109"/>
<text text-anchor="middle" x="101.5" y="-87.3" font-family="Times,serif" font-size="14.00">13: (游릴 , 游릴 ) (游린 , 游린 ) (游린 , 游린 )</text>
</g>
<!-- NNDt&#45;&gt;NDDf -->
<g id="edge32" class="edge">
<title>NNDt&#45;&gt;NDDf</title>
<path fill="none" stroke="red" stroke-dasharray="1,5" d="M158.78,-291.93C139.27,-283.93 120.66,-272.2 108.5,-255 80.05,-214.75 87.04,-153.92 94.44,-119.07"/>
<polygon fill="red" stroke="red" points="97.89,-119.67 96.71,-109.14 91.07,-118.11 97.89,-119.67"/>
</g>
<!-- NNDs&#45;&gt;NMDt -->
<g id="edge15" class="edge">
<title>NNDs&#45;&gt;NMDt</title>
<path fill="none" stroke="orange" d="M280.89,-218.99C320.61,-208.66 371.48,-195.43 412.92,-184.66"/>
<polygon fill="orange" stroke="orange" points="413.9,-188.02 422.7,-182.11 412.14,-181.24 413.9,-188.02"/>
</g>
<!-- NNDs&#45;&gt;NDDf -->
<g id="edge16" class="edge">
<title>NNDs&#45;&gt;NDDf</title>
<path fill="none" stroke="red" d="M201.98,-218.92C182.01,-193.69 144.51,-146.33 121.4,-117.14"/>
<polygon fill="red" stroke="red" points="123.96,-114.73 115.01,-109.06 118.47,-119.07 123.96,-114.73"/>
</g>
<!-- NMMs -->
<g id="node6" class="node">
<title>NMMs</title>
<polygon fill="none" stroke="green" stroke-width="5" points="829.5,-255 633.5,-255 633.5,-219 829.5,-219 829.5,-255"/>
<text text-anchor="middle" x="731.5" y="-233.3" font-family="Times,serif" font-size="14.00">9: (游릴 , 游릴 ) (游릴 , 游린 ) (游릴 , 游린 )</text>
</g>
<!-- NMMs&#45;&gt;NMDt -->
<g id="edge12" class="edge">
<title>NMMs&#45;&gt;NMDt</title>
<path fill="none" stroke="red" d="M671.94,-218.97C652.33,-212.79 630.49,-205.88 610.5,-200 592.87,-194.82 573.82,-189.54 556.1,-184.71"/>
<polygon fill="red" stroke="red" points="556.98,-181.32 546.41,-182.08 555.14,-188.08 556.98,-181.32"/>
</g>
<!-- NMMs&#45;&gt;NMDt -->
<g id="edge13" class="edge">
<title>NMMs&#45;&gt;NMDt</title>
<path fill="none" stroke="orange" d="M688.8,-218.97C670.33,-212.79 648.49,-205.88 628.5,-200 610.79,-194.79 591.64,-189.49 573.34,-184.64"/>
<polygon fill="orange" stroke="orange" points="574.12,-181.23 563.56,-182.08 572.34,-188 574.12,-181.23"/>
</g>
<!-- MMMt -->
<g id="node17" class="node">
<title>MMMt</title>
<polygon fill="none" stroke="yellow" stroke-width="5" points="866,-182 663,-182 663,-146 866,-146 866,-182"/>
<text text-anchor="middle" x="764.5" y="-160.3" font-family="Times,serif" font-size="14.00">12: (游릴 , 游린 ) (游릴 , 游린 ) (游릴 , 游린 )</text>
</g>
<!-- NMMs&#45;&gt;MMMt -->
<g id="edge14" class="edge">
<title>NMMs&#45;&gt;MMMt</title>
<path fill="none" stroke="orange" d="M739.49,-218.81C743.34,-210.53 748.04,-200.41 752.33,-191.19"/>
<polygon fill="orange" stroke="orange" points="755.54,-192.57 756.59,-182.03 749.2,-189.62 755.54,-192.57"/>
</g>
<!-- NMMt&#45;&gt;NMMs -->
<g id="edge25" class="edge">
<title>NMMt&#45;&gt;NMMs</title>
<path fill="none" stroke="blue" d="M725.44,-291.81C726.34,-283.79 727.44,-274.05 728.45,-265.07"/>
<polygon fill="blue" stroke="blue" points="731.94,-265.36 729.58,-255.03 724.98,-264.57 731.94,-265.36"/>
</g>
<!-- NMMt&#45;&gt;NMDt -->
<g id="edge34" class="edge">
<title>NMMt&#45;&gt;NMDt</title>
<path fill="none" stroke="red" stroke-dasharray="1,5" d="M686.24,-291.86C667,-282.24 643.62,-269.31 624.5,-255 596.82,-234.29 598.1,-219.42 569.5,-200 562.13,-195 553.94,-190.46 545.67,-186.44"/>
<polygon fill="red" stroke="red" points="546.88,-183.15 536.34,-182.12 543.94,-189.5 546.88,-183.15"/>
</g>
<!-- NMMt&#45;&gt;NMDf -->
<g id="edge35" class="edge">
<title>NMMt&#45;&gt;NMDf</title>
<path fill="none" stroke="red" stroke-dasharray="1,5" d="M653.08,-291.99C610.04,-281.6 554.86,-268.27 510.08,-257.46"/>
<polygon fill="red" stroke="red" points="510.65,-254 500.11,-255.05 509.01,-260.8 510.65,-254"/>
</g>
<!-- MMDf -->
<g id="node15" class="node">
<title>MMDf</title>
<polygon fill="none" stroke="red" stroke-width="5" points="866,-109 663,-109 663,-73 866,-73 866,-109"/>
<text text-anchor="middle" x="764.5" y="-87.3" font-family="Times,serif" font-size="14.00">16: (游릴 , 游린 ) (游릴 , 游린 ) (游린 , 游린 )</text>
</g>
<!-- NMMt&#45;&gt;MMDf -->
<g id="edge36" class="edge">
<title>NMMt&#45;&gt;MMDf</title>
<path fill="none" stroke="red" stroke-dasharray="1,5" d="M778.1,-292C798.91,-283.45 821.64,-271.36 838.5,-255 864.6,-229.67 867.05,-217.38 875.5,-182 879.22,-166.44 883.99,-159.56 875.5,-146 866.7,-131.93 853.07,-121.43 838.33,-113.63"/>
<polygon fill="red" stroke="red" points="839.57,-110.34 829.05,-109.12 836.51,-116.64 839.57,-110.34"/>
</g>
<!-- MMMf -->
<g id="node18" class="node">
<title>MMMf</title>
<polygon fill="none" stroke="red" stroke-width="5" points="1147,-255 944,-255 944,-219 1147,-219 1147,-255"/>
<text text-anchor="middle" x="1045.5" y="-233.3" font-family="Times,serif" font-size="14.00">10: (游릴 , 游린 ) (游릴 , 游린 ) (游릴 , 游린 )</text>
</g>
<!-- NMMt&#45;&gt;MMMf -->
<g id="edge33" class="edge">
<title>NMMt&#45;&gt;MMMf</title>
<path fill="none" stroke="orange" stroke-dasharray="1,5" d="M821.75,-295.03C856.04,-289.44 894.66,-282.33 929.5,-274 948.02,-269.57 967.9,-263.79 985.88,-258.16"/>
<polygon fill="orange" stroke="orange" points="987.18,-261.42 995.66,-255.06 985.07,-254.75 987.18,-261.42"/>
</g>
<!-- NMDs -->
<g id="node9" class="node">
<title>NMDs</title>
<polygon fill="none" stroke="green" stroke-width="5" points="424,-109 221,-109 221,-73 424,-73 424,-109"/>
<text text-anchor="middle" x="322.5" y="-87.3" font-family="Times,serif" font-size="14.00">14: (游릴 , 游릴 ) (游릴 , 游린 ) (游린 , 游린 )</text>
</g>
<!-- NDDs -->
<g id="node12" class="node">
<title>NDDs</title>
<polygon fill="none" stroke="green" stroke-width="5" points="424,-36 221,-36 221,0 424,0 424,-36"/>
<text text-anchor="middle" x="322.5" y="-14.3" font-family="Times,serif" font-size="14.00">17: (游릴 , 游릴 ) (游린 , 游린 ) (游린 , 游린 )</text>
</g>
<!-- NMDs&#45;&gt;NDDs -->
<g id="edge17" class="edge">
<title>NMDs&#45;&gt;NDDs</title>
<path fill="none" stroke="orange" d="M316.62,-72.81C315.78,-64.79 315.55,-55.05 315.92,-46.07"/>
<polygon fill="orange" stroke="orange" points="319.42,-46.25 316.64,-36.03 312.44,-45.75 319.42,-46.25"/>
</g>
<!-- NMDs&#45;&gt;NDDs -->
<g id="edge18" class="edge">
<title>NMDs&#45;&gt;NDDs</title>
<path fill="none" stroke="red" d="M328.38,-72.81C329.22,-64.79 329.45,-55.05 329.08,-46.07"/>
<polygon fill="red" stroke="red" points="332.56,-45.75 328.36,-36.03 325.58,-46.25 332.56,-45.75"/>
</g>
<!-- MMDs -->
<g id="node14" class="node">
<title>MMDs</title>
<polygon fill="none" stroke="green" stroke-width="5" points="645,-36 442,-36 442,0 645,0 645,-36"/>
<text text-anchor="middle" x="543.5" y="-14.3" font-family="Times,serif" font-size="14.00">18: (游릴 , 游린 ) (游릴 , 游린 ) (游린 , 游린 )</text>
</g>
<!-- NMDs&#45;&gt;MMDs -->
<g id="edge19" class="edge">
<title>NMDs&#45;&gt;MMDs</title>
<path fill="none" stroke="orange" d="M375.44,-72.99C407.05,-62.84 447.38,-49.88 480.61,-39.2"/>
<polygon fill="orange" stroke="orange" points="481.78,-42.5 490.23,-36.11 479.64,-35.84 481.78,-42.5"/>
</g>
<!-- NMDt&#45;&gt;NMDs -->
<g id="edge26" class="edge">
<title>NMDt&#45;&gt;NMDs</title>
<path fill="none" stroke="blue" d="M448.74,-145.99C425.71,-136.14 396.51,-123.66 372,-113.17"/>
<polygon fill="blue" stroke="blue" points="373.08,-109.83 362.51,-109.11 370.33,-116.26 373.08,-109.83"/>
</g>
<!-- NMDt&#45;&gt;NDDf -->
<g id="edge37" class="edge">
<title>NMDt&#45;&gt;NDDf</title>
<path fill="none" stroke="orange" stroke-dasharray="1,5" d="M389.94,-145.99C331.22,-135.43 257.02,-121.82 198.56,-110.92"/>
<polygon fill="orange" stroke="orange" points="199.05,-107.45 188.58,-109.05 197.77,-114.33 199.05,-107.45"/>
</g>
<!-- NMDt&#45;&gt;NDDf -->
<g id="edge38" class="edge">
<title>NMDt&#45;&gt;NDDf</title>
<path fill="none" stroke="red" stroke-dasharray="1,5" d="M401.66,-145.99C345.07,-135.4 270.8,-121.77 210.28,-110.85"/>
<polygon fill="red" stroke="red" points="210.77,-107.38 200.31,-109.05 209.53,-114.27 210.77,-107.38"/>
</g>
<!-- MMMs -->
<g id="node16" class="node">
<title>MMMs</title>
<polygon fill="none" stroke="green" stroke-width="5" points="645,-109 442,-109 442,-73 645,-73 645,-109"/>
<text text-anchor="middle" x="543.5" y="-87.3" font-family="Times,serif" font-size="14.00">15: (游릴 , 游린 ) (游릴 , 游린 ) (游릴 , 游린 )</text>
</g>
<!-- MMMs&#45;&gt;MMDs -->
<g id="edge20" class="edge">
<title>MMMs&#45;&gt;MMDs</title>
<path fill="none" stroke="orange" d="M537.62,-72.81C536.78,-64.79 536.55,-55.05 536.92,-46.07"/>
<polygon fill="orange" stroke="orange" points="540.42,-46.25 537.64,-36.03 533.44,-45.75 540.42,-46.25"/>
</g>
<!-- MMMs&#45;&gt;MMDs -->
<g id="edge21" class="edge">
<title>MMMs&#45;&gt;MMDs</title>
<path fill="none" stroke="red" d="M549.38,-72.81C550.22,-64.79 550.45,-55.05 550.08,-46.07"/>
<polygon fill="red" stroke="red" points="553.56,-45.75 549.36,-36.03 546.58,-46.25 553.56,-45.75"/>
</g>
<!-- MMMt&#45;&gt;MMDs -->
<g id="edge39" class="edge">
<title>MMMt&#45;&gt;MMDs</title>
<path fill="none" stroke="orange" stroke-dasharray="1,5" d="M820.49,-145.88C838.2,-137.77 855.87,-125.99 866.5,-109 874.99,-95.44 876.87,-85.19 866.5,-73 839.26,-40.97 737.63,-27.89 655.51,-22.57"/>
<polygon fill="orange" stroke="orange" points="655.54,-19.07 645.34,-21.95 655.11,-26.06 655.54,-19.07"/>
</g>
<!-- MMMt&#45;&gt;MMDs -->
<g id="edge40" class="edge">
<title>MMMt&#45;&gt;MMDs</title>
<path fill="none" stroke="red" stroke-dasharray="1,5" d="M837.61,-145.88C856.2,-137.77 873.87,-125.99 884.5,-109 892.99,-95.44 894.87,-85.19 884.5,-73 855.63,-39.05 743.19,-26.39 655.17,-21.7"/>
<polygon fill="red" stroke="red" points="655.27,-18.2 645.11,-21.19 654.92,-25.19 655.27,-18.2"/>
</g>
<!-- MMMt&#45;&gt;MMDf -->
<g id="edge41" class="edge">
<title>MMMt&#45;&gt;MMDf</title>
<path fill="none" stroke="orange" stroke-dasharray="1,5" d="M758.62,-145.81C757.78,-137.79 757.55,-128.05 757.92,-119.07"/>
<polygon fill="orange" stroke="orange" points="761.42,-119.25 758.64,-109.03 754.44,-118.75 761.42,-119.25"/>
</g>
<!-- MMMt&#45;&gt;MMDf -->
<g id="edge42" class="edge">
<title>MMMt&#45;&gt;MMDf</title>
<path fill="none" stroke="red" stroke-dasharray="1,5" d="M770.38,-145.81C771.22,-137.79 771.45,-128.05 771.08,-119.07"/>
<polygon fill="red" stroke="red" points="774.56,-118.75 770.36,-109.03 767.58,-119.25 774.56,-118.75"/>
</g>
<!-- MMMt&#45;&gt;MMMs -->
<g id="edge23" class="edge">
<title>MMMt&#45;&gt;MMMs</title>
<path fill="none" stroke="blue" d="M711.56,-145.99C679.95,-135.84 639.62,-122.88 606.39,-112.2"/>
<polygon fill="blue" stroke="blue" points="607.36,-108.84 596.77,-109.11 605.22,-115.5 607.36,-108.84"/>
</g>
<!-- Functional -->
<g id="node19" class="node">
<title>Functional</title>
<polygon fill="none" stroke="green" points="1161.5,-591 1045.5,-591 1045.5,-555 1161.5,-555 1161.5,-591"/>
<text text-anchor="middle" x="1103.5" y="-569.3" font-family="Times,serif" font-size="14.00">System functional</text>
</g>
<!-- NonFunctional -->
<g id="node20" class="node">
<title>NonFunctional</title>
<polygon fill="none" stroke="red" points="1115.5,-504 975.5,-504 975.5,-468 1115.5,-468 1115.5,-504"/>
<text text-anchor="middle" x="1045.5" y="-482.3" font-family="Times,serif" font-size="14.00">System non&#45;functional</text>
</g>
<!-- Functional&#45;&gt;NonFunctional -->
<g id="edge1" class="edge">
<title>Functional&#45;&gt;NonFunctional</title>
<path fill="none" stroke="orange" d="M1063.93,-554.99C1056.98,-550.2 1050.65,-544.26 1046.5,-537 1042.64,-530.27 1041.36,-522.14 1041.32,-514.41"/>
<polygon fill="orange" stroke="orange" points="1044.82,-514.48 1041.91,-504.3 1037.83,-514.07 1044.82,-514.48"/>
<text text-anchor="middle" x="1093.5" y="-525.8" font-family="Times,serif" font-size="14.00">Maintenance &#160;&#160;&#160;&#160;&#160;</text>
</g>
<!-- Null2 -->
<g id="node23" class="node">
<title>Null2</title>
<polygon fill="none" stroke="transparent" points="1189.5,-504 1135.5,-504 1135.5,-468 1189.5,-468 1189.5,-504"/>
</g>
<!-- Functional&#45;&gt;Null2 -->
<g id="edge4" class="edge">
<title>Functional&#45;&gt;Null2</title>
<path fill="none" stroke="black" stroke-dasharray="1,5" d="M1124.6,-554.78C1130.25,-549.48 1136.02,-543.36 1140.5,-537 1145.49,-529.91 1149.73,-521.51 1153.1,-513.64"/>
<polygon fill="black" stroke="black" points="1156.46,-514.67 1156.92,-504.09 1149.96,-512.08 1156.46,-514.67"/>
<text text-anchor="middle" x="1197" y="-525.8" font-family="Times,serif" font-size="14.00">Secondary failure</text>
</g>
<!-- MovingRanges -->
<g id="node21" class="node">
<title>MovingRanges</title>
<polygon fill="none" stroke="yellow" points="1105,-417 986,-417 986,-379 1105,-379 1105,-417"/>
<text text-anchor="middle" x="1045.5" y="-401.8" font-family="Times,serif" font-size="14.00">System functional;</text>
<text text-anchor="middle" x="1045.5" y="-386.8" font-family="Times,serif" font-size="14.00">ranges adjusting</text>
</g>
<!-- NonFunctional&#45;&gt;MovingRanges -->
<g id="edge2" class="edge">
<title>NonFunctional&#45;&gt;MovingRanges</title>
<path fill="none" stroke="red" d="M1045.5,-467.6C1045.5,-456.06 1045.5,-440.65 1045.5,-427.36"/>
<polygon fill="red" stroke="red" points="1049,-427.27 1045.5,-417.27 1042,-427.27 1049,-427.27"/>
<text text-anchor="middle" x="1077.5" y="-438.8" font-family="Times,serif" font-size="14.00">USS failure</text>
</g>
<!-- Null1 -->
<g id="node22" class="node">
<title>Null1</title>
<polygon fill="none" stroke="transparent" points="1072.5,-328 1018.5,-328 1018.5,-292 1072.5,-292 1072.5,-328"/>
</g>
<!-- MovingRanges&#45;&gt;Null1 -->
<g id="edge3" class="edge">
<title>MovingRanges&#45;&gt;Null1</title>
<path fill="none" stroke="blue" d="M1045.5,-378.76C1045.5,-366.93 1045.5,-351.32 1045.5,-338.05"/>
<polygon fill="blue" stroke="blue" points="1049,-338.04 1045.5,-328.04 1042,-338.04 1049,-338.04"/>
<text text-anchor="middle" x="1104.5" y="-349.8" font-family="Times,serif" font-size="14.00">Many minutes elapse</text>
</g>
<!-- Null1&#45;&gt;MMMf -->
<g id="edge5" class="edge">
<title>Null1&#45;&gt;MMMf</title>
<path fill="none" stroke="transparent" d="M1045.5,-291.81C1045.5,-283.79 1045.5,-274.05 1045.5,-265.07"/>
<polygon fill="transparent" stroke="transparent" points="1049,-265.03 1045.5,-255.03 1042,-265.03 1049,-265.03"/>
</g>
</g>
</svg>
