<svg width="172" height="51" viewBox="0 0 172 51" fill="none" xmlns="http://www.w3.org/2000/svg">
<path fill-rule="evenodd" clip-rule="evenodd" d="M2.09509 5.2378C2.09509 4.36999 2.40193 3.62929 3.01561 3.01561C3.62921 2.40193 4.36999 2.09509 5.2378 2.09509H45.0451C45.4619 2.09509 45.8627 2.17486 46.2478 2.3344C46.6328 2.49386 46.9727 2.72093 47.2673 3.01561C47.5619 3.31028 47.7891 3.65018 47.9486 4.03516C48.108 4.42021 48.1878 4.82109 48.1878 5.2378H50.283C50.283 4.894 50.2486 4.55355 50.1812 4.21637C50.1139 3.87928 50.0142 3.55193 49.8825 3.23441C49.7508 2.91681 49.5893 2.61512 49.3982 2.32933C49.2072 2.04355 48.9901 1.77913 48.7469 1.53592C48.5038 1.29286 48.2394 1.07577 47.9536 0.884651C47.6678 0.693607 47.3661 0.532116 47.0485 0.400413C46.731 0.268632 46.4037 0.169056 46.0665 0.101684C45.7293 0.0343114 45.3889 0.000389879 45.0451 0H5.2378C4.894 0.000389879 4.55347 0.0343114 4.21637 0.101684C3.8792 0.169056 3.55193 0.268632 3.23433 0.400413C2.91681 0.532116 2.61512 0.693607 2.32925 0.884651C2.04347 1.07577 1.77905 1.29286 1.53592 1.53592C1.29278 1.77913 1.07577 2.04355 0.884651 2.32933C0.693529 2.61512 0.532116 2.91681 0.400413 3.23441C0.268632 3.55193 0.169056 3.87928 0.101684 4.21637C0.0343114 4.55355 0 4.894 0 5.2378V15.7134H2.09509V5.2378Z" fill="#FFFFFF"/>
<path fill-rule="evenodd" clip-rule="evenodd" d="M45.0451 48.1879H5.23779C4.82109 48.1879 4.42021 48.1082 4.03516 47.9487C3.65011 47.7893 3.31028 47.5622 3.0156 47.2674C2.72093 46.9728 2.49379 46.6329 2.33432 46.2479C2.17486 45.8629 2.09508 45.4619 2.09508 45.0452V35.6172H0V45.0452C0 45.389 0.0343114 45.7296 0.101684 46.0667C0.169056 46.4038 0.268632 46.7311 0.400413 47.0487C0.532116 47.3662 0.693607 47.6679 0.884651 47.9537C1.07577 48.2395 1.29286 48.504 1.53591 48.747C1.77905 48.9902 2.04355 49.2073 2.32933 49.3983C2.61512 49.5895 2.91681 49.7508 3.23441 49.8826C3.55193 50.0144 3.87928 50.114 4.21638 50.1813C4.55355 50.2487 4.89399 50.2826 5.23779 50.283H45.0451C45.3889 50.2826 45.7293 50.2487 46.0666 50.1813C46.4037 50.114 46.731 50.0144 47.0485 49.8826C47.3661 49.7509 47.6678 49.5895 47.9536 49.3983C48.2394 49.2073 48.5038 48.9902 48.747 48.747C48.9901 48.504 49.2072 48.2395 49.3982 47.9537C49.5893 47.6679 49.7508 47.3662 49.8825 47.0487C50.0143 46.7311 50.1139 46.4038 50.1812 46.0667C50.2486 45.7295 50.2829 45.389 50.2829 45.0452H48.1878C48.1878 45.4619 48.108 45.8629 47.9486 46.2479C47.7891 46.6329 47.5619 46.9728 47.2673 47.2674C46.9727 47.5622 46.6328 47.7893 46.2478 47.9487C45.8627 48.1082 45.4619 48.1879 45.0451 48.1879Z" fill="#FFFFFF"/>
<path fill-rule="evenodd" clip-rule="evenodd" d="M2.09509 24.094H14.6658V26.1891H12.5707C12.2815 26.1891 12.0345 26.2914 11.83 26.4959C11.6254 26.7005 11.5231 26.9474 11.5231 27.2366V29.3318H5.2378V28.2842H9.42805V26.1891H2.09509V24.094ZM1.04754 28.2842H3.14271V33.522H5.2378V31.4269H11.5231V33.522H13.6182V28.2842H15.7134C16.0026 28.2842 16.2496 28.1819 16.4542 27.9774C16.6587 27.7729 16.7609 27.5259 16.7609 27.2366V23.0464C16.7609 22.7571 16.6587 22.5102 16.4542 22.3057C16.2496 22.1011 16.0026 21.9988 15.7134 21.9988H14.6658V20.9513H16.7609V18.8562H10.4756V20.9513H12.5707V21.9988H4.19025V20.9513H6.28534V18.8562H0V20.9513H2.09509V21.9988H1.04754C0.758248 21.9988 0.511295 22.1011 0.306762 22.3057C0.102228 22.5102 0 22.7571 0 23.0464V27.2366C0 27.5259 0.102228 27.7729 0.306762 27.9774C0.511295 28.1819 0.758248 28.2842 1.04754 28.2842Z" fill="#FFFFFF"/>
<path fill-rule="evenodd" clip-rule="evenodd" d="M47.1402 7.33301H28.2841C27.4163 7.33301 26.6755 7.63985 26.0618 8.25345C25.4482 8.86713 25.1414 9.60783 25.1414 10.4757V20.9513H27.2365V10.4757C27.2365 10.1864 27.3387 9.93947 27.5434 9.73493C27.7479 9.5304 27.9948 9.42817 28.2841 9.42817H47.1402C47.4295 9.42817 47.6763 9.5304 47.8809 9.73493C48.0854 9.93947 48.1877 10.1864 48.1877 10.4757V39.8074C48.1877 40.0966 48.0854 40.3436 47.8809 40.5481C47.6763 40.7526 47.4295 40.8549 47.1402 40.8549H28.2841C27.9948 40.8549 27.7479 40.7526 27.5434 40.5481C27.3387 40.3436 27.2365 40.0966 27.2365 39.8074V34.5696H25.1414V39.8074C25.1414 40.2241 25.221 40.625 25.3806 41.01C25.5401 41.3951 25.7671 41.7349 26.0618 42.0296C26.3566 42.3243 26.6964 42.5513 27.0814 42.7109C27.4664 42.8703 27.8673 42.95 28.2841 42.95H47.1402C47.5569 42.95 47.9578 42.8703 48.3428 42.7109C48.7278 42.5513 49.0677 42.3243 49.3624 42.0296C49.657 41.7349 49.8841 41.3951 50.0436 41.01C50.203 40.625 50.2829 40.2241 50.2829 39.8074V10.4757C50.2829 10.0589 50.203 9.65805 50.0436 9.273C49.8841 8.88803 49.657 8.54812 49.3624 8.25345C49.0677 7.95877 48.7278 7.7317 48.3428 7.57224C47.9578 7.4127 47.5569 7.33301 47.1402 7.33301Z" fill="#FFFFFF"/>
<path fill-rule="evenodd" clip-rule="evenodd" d="M29.3315 14.666H46.0925V12.5708H29.3315V14.666Z" fill="#FFFFFF"/>
<path fill-rule="evenodd" clip-rule="evenodd" d="M29.3315 37.7123H46.0925V35.6172H29.3315V37.7123Z" fill="#FFFFFF"/>
<path fill-rule="evenodd" clip-rule="evenodd" d="M4.19024 6.2854V9.4281H6.2854V6.2854H9.42803V4.19023H6.2854C5.70174 4.17791 5.20363 4.37816 4.79082 4.79089C4.37809 5.20362 4.17784 5.70182 4.19024 6.2854Z" fill="#FFFFFF"/>
<path fill-rule="evenodd" clip-rule="evenodd" d="M23.0462 24.0941H18.856V26.1891H23.0336C23.3363 26.1566 23.5959 26.2473 23.8124 26.4613C24.0289 26.6753 24.1227 26.9338 24.0938 27.2367V28.2842C24.0681 29.1626 24.3659 29.9123 24.9872 30.5336C25.6084 31.1549 26.3582 31.4527 27.2365 31.4269H34.5693C35.4476 31.4527 36.1973 31.1549 36.8187 30.5336C37.44 29.9123 37.7377 29.1626 37.7121 28.2842V25.1416H35.617V28.2842C35.6464 28.5849 35.5543 28.8421 35.3408 29.0557C35.1272 29.2693 34.87 29.3613 34.5693 29.3319H27.2365C26.9358 29.3613 26.6787 29.2693 26.4651 29.0557C26.2514 28.8421 26.1594 28.5849 26.1889 28.2842V27.2367C26.2146 26.3585 25.9168 25.6087 25.2955 24.9874C24.6742 24.3661 23.9245 24.0683 23.0462 24.0941Z" fill="#FFFFFF"/>
<path fill-rule="evenodd" clip-rule="evenodd" d="M35.6172 23.0463H37.7123V20.9512H35.6172V23.0463Z" fill="#FFFFFF"/>
<path fill-rule="evenodd" clip-rule="evenodd" d="M35.6172 18.8562H37.7123V16.761H35.6172V18.8562Z" fill="#FFFFFF"/>
<path fill-rule="evenodd" clip-rule="evenodd" d="M39.8074 18.8562H41.9025V16.761H39.8074V18.8562Z" fill="#FFFFFF"/>
<path fill-rule="evenodd" clip-rule="evenodd" d="M39.8074 23.0463H41.9025V20.9512H39.8074V23.0463Z" fill="#FFFFFF"/>
<path fill-rule="evenodd" clip-rule="evenodd" d="M39.8074 27.2367H41.9025V25.1416H39.8074V27.2367Z" fill="#FFFFFF"/>
<path fill-rule="evenodd" clip-rule="evenodd" d="M39.8074 31.4269H41.9025V29.3318H39.8074V31.4269Z" fill="#FFFFFF"/>
<path fill-rule="evenodd" clip-rule="evenodd" d="M43.9976 31.4269H46.0926V29.3318H43.9976V31.4269Z" fill="#FFFFFF"/>
<path fill-rule="evenodd" clip-rule="evenodd" d="M4.19024 40.855V43.9977C4.17784 44.5813 4.37809 45.0795 4.79082 45.4922C5.20363 45.9049 5.70174 46.1051 6.2854 46.0928H9.42803V43.9977H6.2854V40.855H4.19024Z" fill="#FFFFFF"/>
<path fill-rule="evenodd" clip-rule="evenodd" d="M165.224 4.99097C168.391 4.99097 170.568 7.03115 171.477 9.01619L169.218 10.3119C168.254 8.68541 167.014 7.69284 165.224 7.69284C163.433 7.69284 162.166 8.74056 162.166 10.1741C162.166 11.5251 163.02 12.3522 164.865 13.0414L166.215 13.5376C170.044 14.9438 172 16.5979 172 19.4929C172 23.0493 168.612 25.0343 165.334 25.0343C161.973 25.0343 159.273 23.0217 158.447 20.2924L160.816 19.0793C161.505 20.8436 162.992 22.2774 165.334 22.2774C167.262 22.2774 168.86 21.2572 168.86 19.5204C168.86 17.6732 167.62 16.9288 165.416 16.1017L164.094 15.6055C161.202 14.5302 159.163 13.0689 159.163 10.0639C159.163 7.14146 161.808 4.99097 165.224 4.99097ZM149.742 4.99097C152.91 4.99097 155.086 7.03115 155.995 9.01619L153.737 10.3119C152.773 8.68541 151.533 7.69284 149.742 7.69284C147.952 7.69284 146.685 8.74056 146.685 10.1741C146.685 11.5251 147.539 12.3522 149.384 13.0414L150.734 13.5376C154.563 14.9438 156.519 16.5979 156.519 19.4929C156.519 23.0493 153.131 25.0343 149.853 25.0343C146.492 25.0343 143.792 23.0217 142.966 20.2924L145.335 19.0793C146.024 20.8436 147.511 22.2774 149.853 22.2774C151.781 22.2774 153.379 21.2572 153.379 19.5204C153.379 17.6732 152.139 16.9288 149.935 16.1017L148.613 15.6055C145.721 14.5302 143.682 13.0689 143.682 10.0639C143.682 7.14146 146.327 4.99097 149.742 4.99097ZM137.319 5.32176H140.349V17.618C140.349 22.3324 137.126 25.0343 133.16 25.0343C129.193 25.0343 125.97 22.3324 125.97 17.618V5.32176H129V17.618C129 20.8989 131.011 22.1671 133.16 22.1671C135.308 22.1671 137.319 20.8989 137.319 17.618V5.32176ZM122.637 10.0639C122.94 10.0639 123.215 10.0639 123.491 10.1191V12.9587C123.215 12.9036 122.94 12.9036 122.72 12.9036C120.02 12.9036 117.816 14.8335 117.486 17.8661V24.6207H114.511V10.2844H117.486V13.9512C118.092 11.8284 119.937 10.0639 122.637 10.0639ZM104.98 12.6002C103.134 12.6002 101.068 13.8409 100.572 16.3498H109.332C109.001 13.8409 106.825 12.6002 104.98 12.6002ZM104.98 10.0363C108.23 10.0363 112.637 12.5177 111.949 18.5278H100.545C100.985 21.0918 103.024 22.3601 105.338 22.3601C107.238 22.3601 108.258 21.8638 109.304 21.0367L110.985 22.6357C109.718 24.0695 107.899 24.8965 105.255 24.8965C101.619 24.8965 97.5697 22.4152 97.5697 17.4801C97.5697 12.5177 101.729 10.0363 104.98 10.0363ZM95.6414 12.7657H92.6113V20.7886C92.6113 21.5604 92.8868 22.1671 93.7682 22.1671C94.512 22.1671 95.0354 22.0292 95.6414 21.781V24.2899C95.0354 24.5932 94.2365 24.7862 92.997 24.7862C91.2065 24.7862 89.6363 24.0695 89.6363 20.8989V12.7657H87.653V10.2844H89.6363V6.92086H92.6113V10.2844H95.6414V12.7657ZM80.1328 10.0639C82.8874 10.0639 85.5869 11.8559 85.5869 16.3223V24.6207H82.612V16.4877C82.612 13.7582 81.3172 12.683 79.4717 12.683C77.1027 12.683 75.5601 14.8885 75.2295 16.2947V24.6207H72.2546V10.2844H75.2295V13.3172C75.505 12.4349 77.1578 10.0639 80.1328 10.0639ZM66.0566 24.6207H69.0867V5.32176H66.0566V24.6207Z" fill="#FFFFFF"/>
<path fill-rule="evenodd" clip-rule="evenodd" d="M141.832 41.5243C142.424 41.5243 142.931 41.6728 143.355 41.9697C143.779 42.2667 144.077 42.6892 144.251 43.2375C144.483 42.6892 144.849 42.2667 145.348 41.9697C145.847 41.6728 146.398 41.5243 147.002 41.5243C149.033 41.5243 150.048 42.6436 150.048 44.882V49.6444H149.004V44.9333C149.004 43.2889 148.33 42.4609 146.984 42.4494C146.172 42.4494 145.563 42.7121 145.157 43.2375C144.75 43.7628 144.547 44.4424 144.547 45.276V49.6444H143.503V44.8306C143.503 44.1111 143.364 43.5372 143.085 43.109C142.807 42.6807 142.383 42.4609 141.814 42.4494C140.979 42.4494 140.312 42.7378 139.813 43.3145C139.314 43.8913 139.058 44.6935 139.047 45.7215V49.6444H138.002V43.8714C137.991 43.4831 137.962 42.7691 137.915 41.7299H138.96C138.983 42.575 139.006 43.0376 139.029 43.1175H139.081C139.314 42.6264 139.685 42.2382 140.196 41.9527C140.706 41.667 141.252 41.5243 141.832 41.5243ZM135.791 41.5243C135.989 41.5243 136.192 41.5528 136.401 41.6099L136.279 42.6207C136.151 42.575 136.012 42.5522 135.861 42.5522C135.014 42.5522 134.367 42.8091 133.92 43.323C133.474 43.837 133.25 44.5052 133.25 45.3274V49.6444H132.206V43.8714C132.206 43.7572 132.177 43.0433 132.119 41.7299H133.163C133.186 42.5179 133.209 42.9804 133.233 43.1175C133.836 42.0553 134.689 41.5243 135.791 41.5243ZM125.643 41.5243C126.873 41.5243 127.883 41.9183 128.672 42.7065C129.461 43.4943 129.862 44.4879 129.873 45.6872C129.873 46.9092 129.47 47.9056 128.663 48.6766C127.857 49.4474 126.85 49.8386 125.643 49.85C124.378 49.8386 123.36 49.4388 122.588 48.6508C121.816 47.8628 121.425 46.875 121.413 45.6872C121.413 44.4652 121.811 43.4688 122.606 42.6978C123.401 41.9269 124.413 41.5358 125.643 41.5243ZM122.458 45.6872C122.458 46.6352 122.759 47.4118 123.363 48.0169C123.966 48.6222 124.726 48.9249 125.643 48.9249C126.595 48.9249 127.364 48.6165 127.95 47.9998C128.536 47.3832 128.829 46.6123 128.829 45.6872C128.829 44.7736 128.539 44.0084 127.958 43.3917C127.378 42.7748 126.601 42.4609 125.626 42.4494C124.686 42.4494 123.926 42.7578 123.346 43.3745C122.765 43.9912 122.469 44.762 122.458 45.6872ZM119.707 36.4878C120.195 36.4878 120.595 36.5564 120.908 36.6934L120.7 37.5842C120.467 37.47 120.154 37.4129 119.76 37.4129C118.82 37.4129 118.35 38.0923 118.35 39.4514V41.7299H120.23V42.655H118.35V49.6444H117.305V42.655H115.634V41.7299H117.305V39.0746C117.305 38.298 117.526 37.6755 117.967 37.2073C118.408 36.7391 118.988 36.4993 119.707 36.4878ZM111.509 39.4514H112.553V41.7299H114.851V42.655H112.553V47.8286C112.553 48.1598 112.652 48.4253 112.849 48.6251C113.046 48.825 113.319 48.9249 113.667 48.9249C114.05 48.9249 114.445 48.8335 114.851 48.6508L114.938 49.5759C114.416 49.7586 113.957 49.85 113.563 49.85C112.878 49.85 112.364 49.6617 112.022 49.2846C111.68 48.9079 111.509 48.4224 111.509 47.8286V42.655H109.768V41.7299H111.509V39.4514ZM104.929 41.5243C106.008 41.5243 106.809 41.77 107.331 42.2609C107.853 42.752 108.12 43.4372 108.132 44.3168V46.6637C108.132 47.9428 108.184 48.9364 108.288 49.6444H107.314C107.244 49.2904 107.209 48.862 107.209 48.3595H107.174C106.594 49.3533 105.66 49.85 104.372 49.85C103.501 49.85 102.811 49.6386 102.3 49.2162C101.79 48.7937 101.529 48.2225 101.517 47.5032C101.517 46.6236 101.903 45.9612 102.675 45.5158C103.446 45.0704 104.523 44.8477 105.904 44.8477H107.192V44.3853C107.192 43.7343 106.989 43.2488 106.582 42.9291C106.176 42.6093 105.625 42.4494 104.929 42.4494C104 42.4494 103.182 42.7463 102.474 43.3402L101.865 42.6379C102.248 42.2723 102.721 41.9955 103.284 41.807C103.847 41.6185 104.395 41.5243 104.929 41.5243ZM102.561 47.4516C102.561 47.8857 102.738 48.2397 103.092 48.5138C103.446 48.7879 103.884 48.9249 104.407 48.9249C105.347 48.9249 106.046 48.6822 106.504 48.1969C106.963 47.7114 107.192 47.052 107.192 46.2182V45.6701H105.938C104.871 45.6701 104.041 45.8299 103.449 46.1497C102.857 46.4695 102.561 46.9035 102.561 47.4516ZM97.8788 49.6444H98.9233V36.6934H97.8788V49.6444ZM91.5253 37.5157C92.7786 37.5157 93.7535 37.7898 94.4497 38.338C95.1461 38.8862 95.5058 39.68 95.5289 40.7191C95.5289 41.6898 95.1924 42.4579 94.5193 43.0233C93.8462 43.5886 92.9701 43.877 91.8909 43.8884H89.158V49.6444H88.009V37.5157H91.5253ZM91.8213 42.8605C92.5639 42.8605 93.1731 42.6807 93.649 42.3209C94.1247 41.9612 94.3685 41.4272 94.3801 40.7191C94.3801 40.0567 94.1422 39.5286 93.6664 39.1345C93.1906 38.7404 92.5581 38.5435 91.769 38.5435H89.158V42.8605H91.8213Z" fill="#FFFFFF"/>
</svg>
